<svg t="1646622073935" class="icon" viewBox="0 0 1024 1024" version="1.1"
  xmlns="http://www.w3.org/2000/svg" p-id="9927"
  xmlns:xlink="http://www.w3.org/1999/xlink" width="200" height="200">
  <defs>
    <style type="text/css"></style>
  </defs>
  <path d="M899.830491 675.65736c-0.011256-0.064468-0.011256-0.096191-0.031723-0.159635 0.491187 0.016373 0.983397 0.096191 1.468445 0.064468 32.486902-1.524726 64.188928-36.944424 51.763944-81.563644-12.301164-44.159756-53.28867-57.571207-85.411275-43.778062-0.459464 0.190335-0.849344 0.459464-1.26276 0.699941-0.038886-0.064468-0.038886-0.096191-0.070608-0.127913-0.580215 0.38067-0.881067 0.587378-1.494027 0.985444-0.095167 0.048095-0.208754 0.125867-0.324388 0.190334-95.011934 60.639079-193.014992 105.322767-296.318776 135.180796 109.802802-21.641903 218.890312-25.234731 329.4565-11.774161 0.127913 0 0.26913 0.031722 0.397043 0.047072 0.73678 0.091074 1.094938 0.13917 1.827625 0.23536zM857.37761 528.638959a0.304945 0.304945 0 0 1-0.056282-0.127913c0.438998-0.174985 0.905626-0.317225 1.343601-0.50756 27.6395-13.332656 51.745525-55.584969 31.231305-91.339288-20.210297-35.244712-60.511165-29.9051-85.824691-6.164397-0.37146 0.349971-0.672312 0.747014-1.022282 1.112334-0.031722-0.031722-0.031722-0.063445-0.064469-0.095168l-1.161452 1.445932c-0.088004 0.11154-0.165776 0.206708-0.24764 0.334621-73.847915 90.511433-153.602354 167.865195-241.253646 234.366796 94.562702-61.178361 192.249559-106.704231 294.994617-138.42263 0.113587-0.031722 0.240477-0.063445 0.350994-0.11154 0.683569-0.188288 1.027399-0.299829 1.709945-0.491187zM790.422685 414.896428a0.373507 0.373507 0 0 1-0.070608-0.095167c0.364297-0.318248 0.747014-0.603751 1.104148-0.953722 22.192442-22.341844 35.777855-69.694315 9.455349-95.182826-25.950022-25.107841-61.799508-5.562692-79.747275 25.551956-0.270153 0.445138-0.446162 0.920976-0.682546 1.382487a0.320295 0.320295 0 0 0-0.089027-0.063445c-0.292666 0.715291-0.452301 1.065262-0.74599 1.76418-0.038886 0.127913-0.110517 0.254803-0.165776 0.381693-47.90301 110.788246-104.216573 211.596186-170.162518 305.382199 73.214489-91.036389 152.515602-169.074743 239.356436-236.830917 0.104377-0.079818 0.215918-0.159636 0.318249-0.23843 0.554632-0.431835 0.849344-0.652869 1.429558-1.098008zM705.226305 334.459444c-0.038886-0.031722-0.055259-0.031722-0.086981-0.064468 0.261966-0.445138 0.548492-0.857531 0.810458-1.302669 15.875572-29.619598 17.193591-78.085426-12.506848-93.086071-29.396517-14.842033-58.666144 15.509229-68.25657 51.294246-0.134053 0.524956-0.206708 1.048889-0.318249 1.557472-0.038886 0-0.055259 0-0.103354-0.031722-0.11154 0.794086-0.166799 1.175779-0.277315 1.954515-0.024559 0.143263-0.040932 0.271176-0.064469 0.413415-19.076474 121.101125-48.323589 236.053204-88.421842 348.111373 47.130414-111.13617 102.843296-212.405621 167.929664-306.97037 0.062422-0.11154 0.14224-0.23843 0.222057-0.349971 0.430812-0.605797 0.635473-0.923022 1.073449-1.52575zM608.057241 287.296285c-0.040932-0.016373-0.064468-0.016373-0.11154-0.031722 0.150426-0.508583 0.341784-0.985444 0.460488-1.52575 8.247848-34.895765-2.453888-80.183204-33.520442-85.045955-30.945803-4.894474-51.92051 33.957393-52.478211 71.125921 0 0.539282 0.064468 1.064238 0.071631 1.620917h-0.095167c0.086981 0.762363 0.110517 1.159406 0.191358 1.938142 0.007163 0.127913 0.022513 0.285502 0.038886 0.413416 10.583033 121.529891 10.241248 241.279229-1.279133 362.650506 18.194384-121.243365 46.750767-236.416478 85.918835-348.920807 0.056282-0.14224 0.095167-0.285502 0.1361-0.397043 0.268106-0.731664 0.405229-1.096984 0.667195-1.827625zM505.143337 273.424346c-0.038886 0.016373-0.064468 0.016373-0.111541 0.016373 0.024559-0.556679 0.079818-1.081635 0.079818-1.620917-0.564865-37.168528-21.523199-76.020394-52.469002-71.157643-31.05018 4.894474-41.761126 50.181913-33.522487 85.077677 0.12075 0.539282 0.310062 1.017166 0.461511 1.52575-0.047072 0.01535-0.072655 0.01535-0.111541 0.031722 0.25378 0.730641 0.397043 1.095961 0.660033 1.827625 0.029676 0.11154 0.086981 0.254803 0.134053 0.397043 39.177278 112.50433 67.732637 227.677443 85.935208 348.920808-11.528568-121.370255-11.885701-241.120616-1.287319-362.650507 0.016373-0.127913 0.016373-0.270153 0.031722-0.413416l0.199545-1.954515zM402.745179 292.825209c-0.047072 0.031722-0.056282 0.031722-0.104377 0.031722-0.109494-0.508583-0.166799-1.032516-0.310062-1.557472-9.581216-35.769668-38.851866-66.13628-68.232011-51.294247-29.698392 14.9679-28.41312 63.466474-12.522198 93.086072 0.246617 0.445138 0.540306 0.858554 0.810459 1.302669-0.030699 0.031722-0.055259 0.031722-0.085958 0.064468 0.421602 0.602727 0.635473 0.920976 1.072425 1.524726 0.079818 0.11154 0.159636 0.23843 0.222057 0.333598 65.071018 94.595448 120.800273 195.8342 167.930687 306.986743-40.076764-112.058169-69.362764-227.010247-88.422865-348.111372-0.031722-0.14224-0.040932-0.270153-0.063445-0.413416a65.719794 65.719794 0 0 1-0.294712-1.953491zM307.124378 345.533664c-0.031722 0.016373-0.047072 0.031722-0.079818 0.063445-0.23843-0.460488-0.428765-0.937348-0.682545-1.413186-17.948791-31.05018-53.773717-50.643424-79.746252-25.520233-26.322505 25.488511-12.736069 72.840982 9.455349 95.182826 0.358157 0.349971 0.738827 0.636496 1.104147 0.970094-0.031722 0.031722-0.039909 0.047072-0.071631 0.079818 0.572028 0.445138 0.873903 0.667196 1.430582 1.095961 0.110517 0.079818 0.213871 0.174985 0.301875 0.238431 86.86437 67.787896 166.141948 145.794527 239.372809 236.830916-65.944921-93.786013-122.268718-194.57758-170.177867-305.382199-0.055259-0.12689-0.095167-0.25378-0.151449-0.381693-0.310062-0.698918-0.453325-1.047866-0.7552-1.76418zM224.541521 431.516967a0.321318 0.321318 0 0 0-0.063445 0.095168c-0.349971-0.36532-0.651846-0.762363-1.00898-1.112334-25.321712-23.740704-65.627696-29.04757-85.831854 6.133697-20.49887 35.753295 3.560082 78.037331 31.232328 91.371011 0.428765 0.191358 0.89744 0.332575 1.335415 0.50756a0.240477 0.240477 0 0 1-0.056282 0.127913c0.682545 0.191358 1.02433 0.301875 1.692549 0.491187 0.12689 0.048095 0.23843 0.079818 0.373506 0.11154 102.738919 31.717376 200.424752 77.258595 294.982338 138.42263-87.636966-66.5016-167.397544-143.856385-241.248529-234.366795-0.079818-0.127913-0.174985-0.223081-0.23843-0.334622-0.469698-0.573051-0.707105-0.873903-1.168616-1.446955zM161.226496 550.790468c-0.008186 0.031722-0.031722 0.064468-0.055258 0.127913-0.413416-0.239454-0.802272-0.509606-1.263783-0.699941-32.106232-13.793144-73.102948-0.381693-85.403089 43.762713-12.43317 44.635593 19.267832 80.038918 51.755758 81.580017 0.485047 0.031722 0.977257-0.048095 1.469467-0.064469-0.008186 0.064468-0.008186 0.096191-0.031722 0.159636 0.738827-0.096191 1.088798-0.144286 1.827625-0.237407 0.135076-0.01535 0.261966-0.047072 0.397043-0.047072 110.565165-13.46057 219.652675-9.868765 329.455477 11.757788-103.303784-29.841655-201.315028-74.525344-296.31673-135.164422-0.118704-0.064468-0.230244-0.14224-0.325411-0.190335-0.610914-0.396019-0.913812-0.603751-1.509377-0.984421z" p-id="9928"></path>
  <path d="M512.706593 736.486774c-23.216771 0-42.101887-18.909675-42.101887-42.111097 0-23.230074 18.886139-42.125423 42.101887-42.125423 23.231097 0 42.116213 18.895349 42.116213 42.125423 0 23.201421-18.885116 42.111097-42.116213 42.111097z" p-id="9929"></path>
</svg>